<?xml version="1.0" encoding="utf-8"?>
<!-- Generator: Adobe Illustrator 23.0.5, SVG Export Plug-In . SVG Version: 6.00 Build 0)  -->
<svg version="1.1" id="Layer_1" xmlns="http://www.w3.org/2000/svg" xmlns:xlink="http://www.w3.org/1999/xlink" x="0px" y="0px"
	 viewBox="0 0 500 500" style="enable-background:new 0 0 500 500;" xml:space="preserve">
<style type="text/css">
	.st0{fill:#8C35F6;}
</style>
<path class="st0" d="M214.7,183.98l-34.67,73.07l-18.08-14.61l71.45-63.51c4.86-4.32,12.31-3.89,16.64,0.98
	c3.21,3.61,3.79,8.64,1.89,12.77l-44.86,97.26l-18.63-13.66l112.74-102.42c4.82-4.38,12.27-4.02,16.65,0.8
	c3.46,3.81,3.95,9.3,1.62,13.58l-73.84,134.97l-17.04-15.35l85.13-66.1c8.08-6.27,19.76-4.47,25.58,3.94l0,0
	c5.81,8.41,3.36,19.98-5.36,25.32l-91.94,56.23l-0.28,0.17c-5.37,3.28-12.51,2.02-16.09-3.15c-2.65-3.82-2.71-8.61-0.66-12.38
	l73.84-134.97l18.26,14.38L204.29,293.71c-4.82,4.38-12.27,4.02-16.65-0.8c-3.28-3.61-3.89-8.7-1.98-12.86l44.86-97.26l18.53,13.74
	l-71.45,63.51l-0.38,0.34c-4.69,4.17-11.93,4.16-16.32-0.33c-3.96-4.05-4.35-10.17-1.38-14.63l44.81-67.33
	c1.74-2.61,5.19-3.43,7.92-1.89h0C214.97,177.76,216.04,181.15,214.7,183.98z"/>
</svg>
